<svg width="21" height="23" viewBox="0 0 21 23" fill="none" xmlns="http://www.w3.org/2000/svg">
<path id="Vector" d="M12.2662 20.5034C12.0904 20.8065 11.838 21.0581 11.5343 21.233C11.2307 21.4079 10.8864 21.5 10.5359 21.5C10.1855 21.5 9.84119 21.4079 9.53752 21.233C9.23385 21.0581 8.98145 20.8065 8.80561 20.5034M16.5343 7.50106C16.5343 5.90948 15.9047 4.38309 14.7793 3.25767C13.6539 2.13225 12.1275 1.5 10.5359 1.5C8.94434 1.5 7.41794 2.13225 6.29252 3.25767C5.16711 4.38309 4.53485 5.90948 4.53485 7.50106C4.53485 12.75 -0.140218 13.6423 1.53432 15.875C3.20886 18.1077 17.7843 18.375 19.6593 15.875C21.2906 13.7 16.5343 12.75 16.5343 7.50106Z" stroke="#1C4E80" stroke-width="1.5" stroke-linecap="round" stroke-linejoin="round"/>
</svg>
