<svg width="20" height="21" viewBox="0 0 20 21" fill="none" xmlns="http://www.w3.org/2000/svg">
<path id="Vector" d="M19.4083 12.164L18.5492 11.4476C17.9599 10.9548 17.9599 10.0402 18.5492 9.5473L19.4083 8.83087C20.0176 8.32277 20.1774 7.43866 19.7779 6.74256L18.0847 3.7549C17.6902 3.05879 16.8611 2.75393 16.1219 3.03847L15.083 3.43479C14.3688 3.70409 13.5897 3.24679 13.4648 2.48464L13.28 1.3668C13.1551 0.57924 12.4809 0 11.6917 0H8.30047C7.51133 0 6.83707 0.57924 6.71221 1.37188L6.52741 2.48972C6.40255 3.25187 5.62341 3.70917 4.90919 3.43987L3.87033 3.04355C3.13114 2.75901 2.30205 3.06388 1.90749 3.75998L0.21934 6.74256C-0.175227 7.43866 -0.0203972 8.31769 0.588934 8.83087L1.44799 9.5473C2.03734 10.0402 2.03235 10.9548 1.44799 11.4476L0.588934 12.164C-0.0203972 12.6722 -0.180222 13.5563 0.21934 14.2524L1.91248 17.24C2.30705 17.9361 3.13114 18.2359 3.87533 17.9564L4.91418 17.5601C5.6284 17.2857 6.40755 17.7481 6.53241 18.5103L6.71721 19.6281C6.84706 20.4208 7.51633 21 8.30546 21H11.6967C12.4859 21 13.1601 20.4208 13.285 19.6281L13.4698 18.5103C13.5947 17.7481 14.3738 17.2908 15.088 17.5601L16.1269 17.9564C16.8661 18.241 17.6952 17.9361 18.0897 17.24L19.7829 14.2524C20.1774 13.5563 20.0226 12.6772 19.4133 12.164H19.4083ZM16.6913 16.4169L15.6524 16.0206C13.9892 15.3854 12.1712 16.4575 11.8815 18.2359L11.6967 19.3537H8.30546L8.12066 18.2359C7.83098 16.4525 6.00798 15.3854 4.3498 16.0206L3.31095 16.4169L1.6178 13.4292L2.47686 12.7128C3.85035 11.5645 3.84536 9.43044 2.47686 8.28212L1.6178 7.56569L3.31095 4.57803L4.3498 4.97435C6.01298 5.60948 7.83098 4.53738 8.12066 2.75901L8.30546 1.64118H11.6967L11.8815 2.75901C12.1712 4.54246 13.9942 5.60948 15.6524 4.97435L16.6913 4.57803L18.3844 7.56569L17.5253 8.2872C16.1518 9.43552 16.1568 11.5696 17.5253 12.7179L18.3844 13.4343L16.6913 16.422V16.4169ZM9.9986 6.45294C7.80601 6.45294 6.02297 8.26688 6.02297 10.4975C6.02297 12.728 7.80601 14.542 9.9986 14.542C12.1912 14.542 13.9742 12.728 13.9742 10.4975C13.9742 8.26688 12.1912 6.45294 9.9986 6.45294ZM9.9986 12.9008C8.69503 12.9008 7.6362 11.8236 7.6362 10.4975C7.6362 9.1713 8.69503 8.09412 9.9986 8.09412C11.3022 8.09412 12.361 9.1713 12.361 10.4975C12.361 11.8236 11.3022 12.9008 9.9986 12.9008Z" fill="#1C4E80"/>
</svg>
