<svg width="156" height="38" viewBox="0 0 156 38" fill="none" xmlns="http://www.w3.org/2000/svg">
<g id="Belsons-Technologies-logo-1 1">
<path id="Vector" d="M50.9865 30.4743H49.5039V30.2085H52.7677V30.4743H51.2851V34.265H50.9865V30.4743Z" fill="#004998"/>
<path id="Vector_2" d="M59.8783 33.997V34.265H57.0371V30.2085H59.7902V30.4743H57.3374V32.0752H59.5307V32.3345H57.3374V33.9964H59.8783V33.997Z" fill="#004998"/>
<path id="Vector_3" d="M64.0823 32.2358C64.0779 31.9603 64.1302 31.6869 64.2366 31.433C64.3429 31.1774 64.501 30.9478 64.7004 30.7544C64.9004 30.5626 65.1379 30.4113 65.3991 30.313C65.6597 30.2141 65.9384 30.1682 66.2178 30.179C66.4883 30.1676 66.7582 30.2125 67.01 30.3092C67.2624 30.4064 67.4916 30.5528 67.6833 30.7414L67.4949 30.9337C67.3279 30.7727 67.1301 30.6479 66.9131 30.5642C66.6954 30.4815 66.4635 30.4426 66.2304 30.4513C65.75 30.4513 65.2894 30.6393 64.95 30.9737C64.6101 31.3087 64.4195 31.7625 64.4195 32.2358C64.4195 32.7091 64.6101 33.163 64.95 33.498C65.2894 33.8324 65.75 34.0204 66.2304 34.0204C66.464 34.028 66.696 33.9885 66.9136 33.9053C67.1307 33.8221 67.3285 33.6952 67.4949 33.5336L67.6833 33.726C67.4921 33.9145 67.2629 34.062 67.0106 34.1603C66.7582 34.2576 66.4883 34.303 66.2178 34.2922C65.9384 34.3035 65.6597 34.2576 65.3991 34.1587C65.1379 34.0593 64.9004 33.9091 64.7004 33.7173C64.501 33.5244 64.3429 33.2943 64.2366 33.0387C64.1302 32.7848 64.0779 32.5114 64.0823 32.2358Z" fill="#004998"/>
<path id="Vector_4" d="M75.5707 30.2085V34.265H75.2705V32.3351H72.519V34.265H72.2188V30.2085H72.519V32.0752H75.2705V30.2085H75.5707Z" fill="#004998"/>
<path id="Vector_5" d="M83.8891 30.2085V34.265H83.6423L80.8352 30.7412V34.265H80.5371V30.2085H80.79L83.5899 33.7306V30.2085H83.8891Z" fill="#004998"/>
<path id="Vector_6" d="M88.4559 32.2359C88.4443 31.8156 88.5606 31.4012 88.7892 31.0462C89.0178 30.6912 89.349 30.4113 89.7407 30.2428C90.1313 30.0742 90.5649 30.024 90.9847 30.0985C91.4045 30.1742 91.7924 30.3703 92.0982 30.6637C92.404 30.957 92.6139 31.3336 92.702 31.7453C92.7891 32.157 92.7505 32.5844 92.5902 32.9739C92.4299 33.3635 92.1544 33.6974 91.8001 33.9319C91.4464 34.1669 91.0288 34.2922 90.6024 34.2922C90.3219 34.3036 90.0426 34.2587 89.7809 34.1604C89.5192 34.061 89.2812 33.9113 89.0801 33.719C88.8796 33.5266 88.7209 33.2954 88.6129 33.0409C88.5066 32.7859 88.4531 32.512 88.4559 32.2359ZM92.4332 32.2359C92.4387 31.8761 92.3351 31.5233 92.1368 31.2218C91.9379 30.9198 91.6525 30.6837 91.3164 30.5421C90.9809 30.4005 90.6106 30.3611 90.2509 30.4281C89.8922 30.4956 89.5622 30.6658 89.3016 30.9187C89.0421 31.1715 88.8647 31.4946 88.7914 31.8474C88.7187 32.1997 88.7539 32.5655 88.8939 32.8977C89.0327 33.2306 89.2691 33.5148 89.5721 33.7147C89.8762 33.9146 90.2327 34.021 90.598 34.0199C90.8393 34.0275 91.0789 33.987 91.3037 33.9005C91.5285 33.8135 91.7329 33.6833 91.9043 33.5158C92.0761 33.3483 92.2117 33.149 92.302 32.9291C92.3935 32.7097 92.4381 32.4736 92.4332 32.2359Z" fill="#004998"/>
<path id="Vector_7" d="M97.3105 30.2085H97.6108V33.997H99.9827V34.265H97.3105V30.2085Z" fill="#004998"/>
<path id="Vector_8" d="M103.804 32.2359C103.792 31.8156 103.908 31.4012 104.137 31.0462C104.365 30.6912 104.697 30.4113 105.087 30.2428C105.478 30.0742 105.911 30.024 106.331 30.0985C106.752 30.1742 107.14 30.3703 107.445 30.6637C107.751 30.957 107.962 31.3336 108.049 31.7453C108.137 32.157 108.098 32.5844 107.937 32.9739C107.776 33.364 107.501 33.6974 107.148 33.9319C106.794 34.1669 106.376 34.2922 105.949 34.2922C105.669 34.3036 105.39 34.2587 105.129 34.1604C104.866 34.061 104.628 33.9113 104.427 33.719C104.227 33.5266 104.069 33.2954 103.961 33.0409C103.853 32.7859 103.8 32.512 103.804 32.2359ZM107.781 32.2359C107.787 31.8761 107.685 31.5227 107.487 31.2196C107.289 30.9171 107.004 30.6799 106.668 30.5378C106.333 30.3951 105.962 30.3546 105.602 30.4211C105.244 30.487 104.912 30.6577 104.651 30.91C104.391 31.1623 104.213 31.4849 104.139 31.8382C104.066 32.1905 104.101 32.5568 104.24 32.8896C104.379 33.223 104.615 33.5077 104.918 33.7076C105.223 33.9081 105.58 34.014 105.945 34.0134C106.186 34.0226 106.428 33.9826 106.652 33.8973C106.878 33.8119 107.083 33.6822 107.256 33.5153C107.429 33.3489 107.566 33.1495 107.657 32.9296C107.749 32.7097 107.795 32.4731 107.79 32.2354L107.781 32.2359Z" fill="#004998"/>
<path id="Vector_9" d="M115.596 32.2522H115.885V33.772C115.479 34.1232 114.953 34.3096 114.412 34.2918C113.172 34.2918 112.266 33.4171 112.266 32.2349C112.266 31.0528 113.178 30.1775 114.425 30.1775C114.698 30.1662 114.97 30.211 115.224 30.3056C115.479 30.4017 115.712 30.5471 115.908 30.7335L115.719 30.9323C115.549 30.7691 115.347 30.6422 115.126 30.56C114.904 30.4768 114.668 30.4395 114.431 30.4503C114.145 30.4601 113.867 30.5357 113.616 30.6719C113.365 30.8075 113.151 30.9998 112.991 31.2332C112.83 31.4666 112.728 31.7335 112.693 32.0129C112.657 32.2922 112.688 32.5764 112.785 32.8411C112.882 33.1059 113.041 33.3447 113.25 33.5375C113.458 33.7299 113.71 33.872 113.985 33.9509C114.26 34.0297 114.548 34.0433 114.83 33.9903C115.111 33.9379 115.375 33.8212 115.601 33.6483L115.596 32.2522Z" fill="#004998"/>
<path id="Vector_10" d="M120.732 30.2085H121.033V34.265H120.732V30.2085Z" fill="#004998"/>
<path id="Vector_11" d="M128.837 33.997V34.265H125.996V30.2085H128.75V30.4743H126.297V32.0752H128.489V32.3345H126.297V33.9964H128.837V33.997Z" fill="#004998"/>
<path id="Vector_12" d="M133.043 33.7432L133.178 33.5314C133.548 33.867 134.034 34.0496 134.537 34.0409C135.358 34.0409 135.723 33.6876 135.723 33.2456C135.723 32.0305 133.148 32.7599 133.148 31.2649C133.148 30.6917 133.594 30.1871 134.605 30.1871C135.047 30.1838 135.48 30.3108 135.848 30.5523L135.737 30.789C135.405 30.5674 135.016 30.4464 134.616 30.4399C133.818 30.4399 133.457 30.8035 133.457 31.2498C133.457 32.4671 136.032 31.7485 136.032 33.2197C136.032 33.7946 135.569 34.2911 134.55 34.2911C133.993 34.3127 133.451 34.1155 133.043 33.7432Z" fill="#004998"/>
<path id="Vector_13" d="M61.2217 20.8682C61.2217 23.0456 59.4686 24.3055 56.1078 24.3055H49.498V11.7114H55.743C58.9385 11.7114 60.582 13.0243 60.582 14.9866C60.5947 15.5593 60.4415 16.1234 60.1407 16.6135C59.8405 17.104 59.4047 17.5001 58.8846 17.7562C60.3121 18.2068 61.2217 19.2846 61.2217 20.8682ZM52.4379 13.9066V16.8663H55.3783C56.8202 16.8663 57.6058 16.3633 57.6058 15.3735C57.6058 14.3842 56.8202 13.8936 55.3783 13.8936L52.4379 13.9066ZM58.2455 20.564C58.2455 19.5067 57.4234 18.9977 55.8846 18.9977H52.4423V22.1098H55.8935C57.4278 22.1098 58.2493 21.643 58.2493 20.5646L58.2455 20.564Z" fill="#004998"/>
<path id="Vector_14" d="M76.1101 21.9628V24.3033H66.2129V11.7119H75.8699V14.0503H69.1632V16.7857H75.0991V19.0517H69.1632V21.9628H76.1101Z" fill="#004998"/>
<path id="Vector_15" d="M81.2031 11.7119H84.1623V21.9293H90.5704V24.3055H81.2031V11.7119Z" fill="#004998"/>
<path id="Vector_16" d="M93.8965 23.0627L94.9009 20.868C96.1421 21.7109 97.6121 22.1658 99.1195 22.1745C100.874 22.1745 101.586 21.6001 101.586 20.8259C101.586 18.4708 94.1516 20.0879 94.1516 15.4117C94.1516 13.27 95.9052 11.4897 99.5404 11.4897C101.145 11.4897 102.789 11.8679 103.976 12.606L103.07 14.8239C101.997 14.1977 100.776 13.8567 99.5272 13.8341C97.7741 13.8341 97.098 14.4829 97.098 15.2739C97.098 17.5993 104.532 15.9925 104.532 20.6163C104.532 22.7304 102.76 24.5215 99.1062 24.5215C97.0744 24.5215 95.0292 23.9272 93.8965 23.0627Z" fill="#004998"/>
<path id="Vector_17" d="M108.486 18.0076C108.486 14.2656 111.445 11.4961 115.48 11.4961C119.514 11.4961 122.474 14.2445 122.474 18.0076C122.474 21.7707 119.497 24.5213 115.48 24.5213C111.463 24.5213 108.486 21.7518 108.486 18.0076ZM119.48 18.0076C119.48 15.6169 117.764 13.9782 115.48 13.9782C113.196 13.9782 111.482 15.6212 111.482 18.0076C111.482 20.3946 113.199 22.0371 115.48 22.0371C117.762 22.0371 119.48 20.4011 119.48 18.0076Z" fill="#004998"/>
<path id="Vector_18" d="M139.166 11.7119V24.306H136.738L130.364 16.6593V24.306H127.443V11.7119H129.896L136.25 19.3586V11.7119H139.166Z" fill="#004998"/>
<path id="Vector_19" d="M143.932 23.0627L144.936 20.868C146.177 21.7109 147.646 22.1653 149.153 22.1745C150.906 22.1745 151.618 21.6001 151.618 20.8259C151.618 18.4708 144.187 20.0879 144.187 15.4117C144.187 13.27 145.94 11.4897 149.573 11.4897C151.181 11.4897 152.824 11.8679 154.011 12.606L153.097 14.8174C152.023 14.1912 150.804 13.8503 149.556 13.8276C147.803 13.8276 147.127 14.4765 147.127 15.2674C147.127 17.5928 154.559 15.986 154.559 20.6098C154.559 22.7239 152.788 24.515 149.136 24.515C147.108 24.5215 145.063 23.9272 143.932 23.0627Z" fill="#004998"/>
<path id="Vector_20" d="M25.2481 17.4539L17.4428 22.8578L11.827 18.9656L19.6323 13.5935L25.2481 17.4539ZM11.1422 19.447L18.0092 24.1767V34.9586L3.30491 24.8531L11.1422 19.447ZM10.4551 18.9656L3.04487 24.1113V13.8491L10.4551 18.9656ZM2.25977 12.9187V25.0449L19.6317 37.0749L37.034 25.0449V12.9187L19.6317 0.918945L2.25977 12.9187ZM21.3055 24.1767L25.9412 20.9911L31.5576 24.8531L21.3055 31.9293V24.1767ZM18.007 13.7859L11.151 18.5155L3.30491 13.1116L17.9987 2.97852L18.007 13.7859ZM25.9472 17.0033L21.3055 13.7853V6.0668L31.557 13.1111L25.9472 17.0033ZM36.2357 24.1113L28.8552 18.9656L36.2357 13.8491V24.1113Z" fill="#004998"/>
<path id="Vector_21" d="M2.7009 14.0817C3.27554 14.0817 3.74164 13.6224 3.74164 13.0562C3.74164 12.49 3.27554 12.0308 2.7009 12.0308C2.12626 12.0308 1.66016 12.49 1.66016 13.0562C1.66016 13.623 2.12626 14.0817 2.7009 14.0817Z" fill="#004998"/>
<path id="Vector_22" d="M2.7009 25.7134C3.27554 25.7134 3.74164 25.2542 3.74164 24.689C3.74164 24.1223 3.27554 23.6636 2.7009 23.6636C2.12626 23.6636 1.66016 24.1228 1.66016 24.689C1.66016 25.2542 2.12626 25.7134 2.7009 25.7134Z" fill="#004998"/>
<path id="Vector_23" d="M22.4194 15.101L20.75 13.8216V4.66748L22.4194 5.94634V15.101Z" fill="#004998"/>
<path id="Vector_24" d="M22.4194 33.2911L20.75 32.0122V22.8581L22.4194 21.8262V33.2911Z" fill="#004998"/>
<path id="Vector_25" d="M21.5859 32.2358L21.7 30.1551L31.6253 23.3286L33.4363 24.0899L21.5859 32.2358Z" fill="#004998"/>
<path id="Vector_26" d="M32.9594 13.2338L30.9402 13.8514L21 7.04158L21.0986 5.10303L32.9594 13.2338Z" fill="#004998"/>
<path id="Vector_27" d="M17.3515 23.329L16.1328 22.1598L30.0994 12.5303L31.9131 13.2851L17.3515 23.329Z" fill="#004998"/>
<path id="Vector_28" d="M26.2715 17.6042L28.2973 17.0039L36.7825 22.8811L36.6684 24.8175L26.2715 17.6042Z" fill="#004998"/>
</g>
</svg>
